<svg width="100" height="100" viewBox="0 0 100 100" fill="none" xmlns="http://www.w3.org/2000/svg">
<g clip-path="url(#clip0_140_99)">
<path d="M80.8103 0H19.1897C8.59154 0 0 8.59154 0 19.1897V80.8103C0 91.4085 8.59154 100 19.1897 100H80.8103C91.4085 100 100 91.4085 100 80.8103V19.1897C100 8.59154 91.4085 0 80.8103 0Z" fill="#222222"/>
<path d="M21.6308 57.0564C18.9282 55.4769 16.8051 53.3385 15.2667 50.6513C13.7282 47.9641 12.959 45.0359 12.959 41.8718C12.959 38.7077 13.7282 35.8359 15.2667 33.159C16.8051 30.4821 18.9231 28.3539 21.6308 26.7744C24.3333 25.1949 27.3744 24.4052 30.7436 24.4052C34.1128 24.4052 37.1077 25.1949 39.8103 26.7744C42.5128 28.3539 44.6257 30.4821 46.1487 33.159C47.6718 35.8359 48.4308 38.7385 48.4308 41.8718C48.4308 45.0052 47.6718 47.959 46.1487 50.6513C44.6257 53.3436 42.518 55.4769 39.8308 57.0564C37.1385 58.6359 34.1128 59.4257 30.7436 59.4257C27.3744 59.4257 24.3385 58.6359 21.6308 57.0564ZM35.5077 46.5077C36.7333 45.2821 37.3487 43.7385 37.3487 41.8718C37.3487 40.6923 37.0769 39.6205 36.5282 38.6564C35.9795 37.6975 35.2051 36.9282 34.2 36.3487C33.1949 35.7744 32.041 35.4821 30.7436 35.4821C29.4462 35.4821 28.2821 35.7693 27.2615 36.3487C26.241 36.9231 25.4513 37.6923 24.8923 38.6564C24.3282 39.6154 24.0513 40.6872 24.0513 41.8718C24.0513 43.7334 24.6667 45.2769 25.8923 46.5077C27.118 47.7334 28.7385 48.3487 30.7487 48.3487C32.759 48.3487 34.2872 47.7334 35.5128 46.5077H35.5077Z" fill="white"/>
<path d="M58.8769 57.0564C56.1744 55.4769 54.0513 53.3385 52.5128 50.6513C50.9744 47.9641 50.2051 45.0359 50.2051 41.8718C50.2051 38.7077 50.9744 35.8359 52.5128 33.159C54.0513 30.4821 56.1692 28.3539 58.8769 26.7744C61.5795 25.1949 64.6205 24.4052 67.9898 24.4052C71.359 24.4052 74.3539 25.1949 77.0564 26.7744C79.759 28.3539 81.8718 30.4821 83.3949 33.159C84.918 35.8359 85.6769 38.7385 85.6769 41.8718C85.6769 45.0052 84.918 47.959 83.3949 50.6513C81.8718 53.3436 79.7641 55.4769 77.0769 57.0564C74.3846 58.6359 71.359 59.4257 67.9898 59.4257C64.6205 59.4257 61.5846 58.6359 58.8769 57.0564ZM72.7539 46.5077C73.9795 45.2821 74.5949 43.7385 74.5949 41.8718C74.5949 40.6923 74.3231 39.6205 73.7744 38.6564C73.2257 37.6975 72.4513 36.9282 71.4462 36.3487C70.441 35.7744 69.2872 35.4821 67.9898 35.4821C66.6923 35.4821 65.5282 35.7693 64.5077 36.3487C63.4872 36.9231 62.6974 37.6923 62.1385 38.6564C61.5744 39.6154 61.2974 40.6872 61.2974 41.8718C61.2974 43.7334 61.9128 45.2769 63.1385 46.5077C64.3641 47.7334 65.9846 48.3487 67.9949 48.3487C70.0051 48.3487 71.5333 47.7334 72.759 46.5077H72.7539Z" fill="white"/>
<path d="M35.9538 67.4667C40.3282 68.5026 44.8359 69.0205 49.4769 69.0205C54.118 69.0205 58.7077 68.5026 63.1538 67.4667C67.6 66.4308 71.5846 64.9077 75.1026 62.8975V71.0975C71.4974 74.1436 67.5077 76.441 63.1333 77.9898C58.759 79.5436 54.2667 80.318 49.6564 80.318C45.0462 80.318 40.5949 79.5436 36.2205 77.9898C31.8462 76.4359 27.8564 74.1539 24.2513 71.1385V62.9385C27.6821 64.918 31.5795 66.4257 35.9538 67.4616V67.4667Z" fill="white"/>
</g>
<defs>
<clipPath id="clip0_140_99">
<rect width="100" height="100" fill="white"/>
</clipPath>
</defs>
</svg>
